<svg width="524" height="205" viewBox="0 0 524 205" fill="none" xmlns="http://www.w3.org/2000/svg">
<path d="M514.823 78.4962V99.1831V204.969H361.082H162.205H10.8136V99.1831V78.4962L0 70.0333C162.205 -12.7153 354.499 -33.4024 523.286 70.0333L514.823 78.4962Z" fill="#E5E5E5"/>
<rect x="16.9258" y="103.885" width="45.1352" height="60.1803" fill="white"/>
<rect x="72.4044" y="103.885" width="45.1352" height="60.1803" fill="white"/>
<rect x="127.883" y="103.885" width="45.1352" height="60.1803" fill="white"/>
<rect x="183.362" y="103.885" width="45.1352" height="60.1803" fill="white"/>
<rect x="238.84" y="103.885" width="45.1352" height="60.1803" fill="white"/>
<rect x="294.319" y="103.885" width="45.1352" height="60.1803" fill="white"/>
<rect x="349.798" y="103.885" width="45.1352" height="60.1803" fill="white"/>
<rect x="405.277" y="103.885" width="45.1352" height="60.1803" fill="white"/>
<rect x="460.755" y="103.885" width="45.1352" height="60.1803" fill="white"/>
<rect x="16.9258" y="169.707" width="45.1352" height="29.1498" fill="white"/>
<rect x="72.4044" y="169.707" width="45.1352" height="29.1498" fill="white"/>
<rect x="127.883" y="169.707" width="34.7917" height="29.1498" fill="white"/>
<rect x="361.082" y="169.706" width="33.8514" height="29.1498" fill="white"/>
<rect x="405.277" y="169.707" width="45.1352" height="29.1498" fill="white"/>
<rect x="460.755" y="169.707" width="45.1352" height="29.1498" fill="white"/>
</svg>
